<?xml version="1.0" encoding="UTF-8" standalone="no"?>
<svg width="64" height="64" viewBox="0 0 64 64" xmlns="http://www.w3.org/2000/svg">
  <!-- Background -->
  <rect width="64" height="64" rx="8" fill="#f8f9fa" />
  
  <!-- Matrix representation -->
  <rect x="8" y="8" width="24" height="24" fill="#4285f4" stroke="#2c3e50" stroke-width="1.5" />
  
  <!-- Matrix grid lines -->
  <line x1="16" y1="8" x2="16" y2="32" stroke="#2c3e50" stroke-width="0.5" />
  <line x1="24" y1="8" x2="24" y2="32" stroke="#2c3e50" stroke-width="0.5" />
  <line x1="8" y1="16" x2="32" y2="16" stroke="#2c3e50" stroke-width="0.5" />
  <line x1="8" y1="24" x2="32" y2="24" stroke="#2c3e50" stroke-width="0.5" />
  
  <!-- Matrix cells with different intensities -->
  <rect x="8" y="8" width="8" height="8" fill="#4285f4" fill-opacity="0.9" />
  <rect x="16" y="8" width="8" height="8" fill="#4285f4" fill-opacity="0.5" />
  <rect x="24" y="8" width="8" height="8" fill="#4285f4" fill-opacity="0.3" />
  
  <rect x="8" y="16" width="8" height="8" fill="#4285f4" fill-opacity="0.5" />
  <rect x="16" y="16" width="8" height="8" fill="#4285f4" fill-opacity="0.9" />
  <rect x="24" y="16" width="8" height="8" fill="#4285f4" fill-opacity="0.6" />
  
  <rect x="8" y="24" width="8" height="8" fill="#4285f4" fill-opacity="0.3" />
  <rect x="16" y="24" width="8" height="8" fill="#4285f4" fill-opacity="0.6" />
  <rect x="24" y="24" width="8" height="8" fill="#4285f4" fill-opacity="0.9" />
  
  <!-- Nodes -->
  <circle cx="48" cy="16" r="6" fill="#ea4335" stroke="#2c3e50" stroke-width="1.5" />
  <circle cx="48" cy="48" r="6" fill="#fbbc05" stroke="#2c3e50" stroke-width="1.5" />
  <circle cx="24" cy="48" r="6" fill="#34a853" stroke="#2c3e50" stroke-width="1.5" />
  
  <!-- Links -->
  <line x1="32" y1="20" x2="42" y2="16" stroke="#2c3e50" stroke-width="1.5" />
  <line x1="48" y1="22" x2="48" y2="42" stroke="#2c3e50" stroke-width="1.5" />
  <line x1="42" y1="48" x2="30" y2="48" stroke="#2c3e50" stroke-width="1.5" />
  <line x1="24" y1="42" x2="24" y2="32" stroke="#2c3e50" stroke-width="1.5" />
</svg> 